<?xml version="1.0" standalone="no"?>
<!DOCTYPE svg PUBLIC "-//W3C//DTD SVG 20010904//EN"
 "http://www.w3.org/TR/2001/REC-SVG-20010904/DTD/svg10.dtd">
<svg version="1.0" xmlns="http://www.w3.org/2000/svg"
 width="464.000000pt" height="464.000000pt" viewBox="0 0 464.000000 464.000000"
 preserveAspectRatio="xMidYMid meet">
<metadata>
Created by potrace 1.14, written by Peter Selinger 2001-2017
</metadata>
<g transform="translate(0.000000,464.000000) scale(0.100000,-0.100000)"
fill="#000000" stroke="none">
<path d="M2158 4635 c-2 -1 -32 -6 -68 -9 -173 -17 -424 -71 -645 -138 -38
-12 -74 -23 -80 -24 -30 -7 -254 -88 -277 -100 -15 -8 -31 -15 -35 -15 -36 -5
-319 -130 -505 -222 l-183 -92 2 -82 c3 -148 21 -446 39 -623 7 -74 34 -306
40 -350 10 -68 13 -86 20 -135 5 -27 9 -52 9 -55 1 -6 15 -85 21 -120 2 -14 6
-36 9 -50 2 -14 7 -38 10 -55 13 -65 67 -300 70 -306 2 -3 7 -19 9 -35 3 -16
15 -60 27 -99 11 -38 24 -83 29 -100 67 -254 234 -636 390 -896 117 -194 290
-423 313 -413 7 3 41 44 77 90 36 47 70 90 75 97 12 14 129 158 290 357 60 74
181 223 268 330 87 107 171 211 187 230 39 49 93 117 264 328 81 101 146 185
143 188 -4 4 -762 -217 -1137 -332 -143 -44 -459 -136 -479 -140 -26 -5 -27
-7 21 51 23 27 500 624 562 704 28 35 104 129 169 210 66 80 132 162 147 181
16 19 59 73 97 120 38 47 156 193 262 325 106 132 206 256 221 275 16 19 129
162 253 317 124 154 254 318 291 362 36 45 66 85 66 90 0 10 -33 19 -235 65
-145 33 -184 41 -270 52 -22 3 -51 8 -65 11 -26 5 -397 13 -402 8z"/>
<path d="M3413 4302 c-37 -48 -83 -105 -102 -128 -64 -72 -83 -95 -290 -354
-113 -140 -207 -257 -210 -260 -4 -3 -51 -61 -106 -130 -119 -149 -440 -547
-463 -575 -9 -11 -33 -40 -52 -65 -19 -25 -43 -54 -52 -65 -50 -59 -128 -160
-128 -167 0 -4 12 -3 28 2 15 5 81 25 147 44 851 249 804 235 835 246 14 4 66
20 115 34 194 56 473 138 534 157 35 11 65 18 67 17 2 -3 -224 -290 -294 -373
-10 -11 -64 -78 -122 -150 -57 -71 -109 -135 -115 -142 -5 -6 -22 -27 -36 -45
-32 -40 -169 -209 -209 -259 -16 -20 -129 -159 -250 -310 -242 -300 -237 -293
-372 -459 -52 -63 -177 -218 -278 -345 -102 -126 -195 -241 -207 -255 -73 -85
-223 -277 -223 -285 0 -21 194 -164 343 -254 117 -70 320 -171 345 -171 11 0
51 15 88 34 38 18 87 42 109 52 22 10 74 38 115 62 458 269 817 658 1083 1173
60 118 150 315 167 369 5 14 25 70 45 125 64 178 123 390 174 620 26 119 35
163 47 235 3 14 7 36 9 50 12 59 15 76 20 123 3 28 8 53 9 56 2 3 7 35 11 71
4 36 8 72 10 80 1 8 6 42 9 75 4 33 9 76 11 95 2 19 7 62 10 95 3 33 7 83 10
110 8 81 23 327 30 482 4 86 2 105 -12 119 -16 16 -295 156 -393 198 -25 10
-70 30 -100 43 -67 30 -225 92 -263 103 -25 8 -31 3 -94 -78z"/>
</g>
</svg>
